<svg xmlns="http://www.w3.org/2000/svg" xmlns:xlink="http://www.w3.org/1999/xlink" 
    version="1.1" x="0px" y="0px" 
    viewBox="0 0 100 100" 
    enable-background="new 0 0 100 100" 
    xml:space="preserve">
<defs>
  <style>.cls-1{fill:#84aff1;}.cls-2{fill:url(#linear-gradient);}.cls-3{fill:#3865ab;}</style>
  <linearGradient id="linear-gradient" y1="40.18" x2="82.99" y2="40.18" gradientUnits="userSpaceOnUse">
    <stop offset="0" stop-color="#f2cc0c"/><stop offset="1" stop-color="#ff9830"/>
  </linearGradient>
</defs>
<g>
  <path class="cls-2" d="M50.65,69.219c-1.242,0-2.25-1.008-2.25-2.25v-4.752L30.195,62.27c-5.438,0-7.192-0.472-7.192-6.1V32.735  c0-1.242,1.008-2.25,2.25-2.25s2.25,1.008,2.25,2.25V56.17c0,0.445,0,1.096,0.029,1.547c0.604,0.053,1.644,0.053,2.657,0.053  l20.455-0.059c0.003,0,0.003,0,0.006,0c0.595,0,1.166,0.237,1.588,0.656c0.425,0.422,0.662,0.996,0.662,1.594v7.008  C52.9,68.211,51.893,69.219,50.65,69.219z"/>
  <path class="cls-2" d="M69.494,81.031c-0.396,0-0.8-0.105-1.163-0.325l-18.293-11.08L33.031,80.668c-1.046,0.677-2.438,0.381-3.111-0.662  c-0.677-1.04-0.381-2.435,0.662-3.111l18.19-11.812c0.724-0.472,1.649-0.483,2.391-0.038l19.5,11.812  c1.063,0.645,1.403,2.027,0.759,3.091C70.997,80.645,70.256,81.031,69.494,81.031z"/>
  <path class="cls-2" d="M70.508,62.293c-0.237,0-0.431-0.015-0.568-0.026H58.438c-1.242,0-2.25-1.008-2.25-2.25s1.008-2.25,2.25-2.25h11.625  c0.114,0,0.229,0.009,0.34,0.026c0.182,0.021,0.712-0.006,0.976-0.237c0.229-0.205,0.36-0.712,0.36-1.386V32.732  c0-1.242,1.008-2.25,2.25-2.25h0.387v-3.645h-48.75v3.647H61.25c1.242,0,2.25,1.008,2.25,2.25s-1.008,2.25-2.25,2.25H23.375  c-1.242,0-2.25-1.008-2.25-2.25v-8.147c0-1.242,1.008-2.25,2.25-2.25h53.25c1.242,0,2.25,1.008,2.25,2.25v8.145  c0,1.242-1.008,2.25-2.25,2.25h-0.387V56.17c0,2.596-1.055,4.046-1.939,4.805C72.995,62.097,71.434,62.293,70.508,62.293z"/>
  <path class="cls-2" d="M55.566,23.469H44.059c-1.242,0-2.25-1.008-2.25-2.25s1.008-2.25,2.25-2.25h11.508c1.242,0,2.25,1.008,2.25,2.25  S56.809,23.469,55.566,23.469z"/>
</g>
</svg>
